<?xml version="1.0" standalone="no"?>
<!DOCTYPE svg PUBLIC "-//W3C//DTD SVG 20010904//EN"
 "http://www.w3.org/TR/2001/REC-SVG-20010904/DTD/svg10.dtd">
<svg version="1.0" xmlns="http://www.w3.org/2000/svg"
 width="260.000000pt" height="260.000000pt" viewBox="0 0 260.000000 260.000000"
 preserveAspectRatio="xMidYMid meet">
<metadata>
Created by potrace 1.11, written by Peter Selinger 2001-2013
</metadata>
<g transform="translate(0.000000,260.000000) scale(0.100000,-0.100000)"
fill="#000000" stroke="none">
<path d="M907 2204 c-6 -6 -38 -12 -89 -17 -9 -1 -14 -5 -12 -9 5 -7 -11 -12
-19 -5 -2 1 -11 -4 -20 -12 -10 -7 -17 -11 -17 -7 0 3 -9 -3 -20 -14 -12 -12
-25 -18 -30 -15 -6 4 -10 1 -10 -5 0 -6 -3 -9 -7 -7 -5 3 -35 -8 -67 -23 -33
-16 -63 -27 -68 -24 -4 3 -8 0 -8 -6 0 -6 -4 -9 -9 -5 -5 3 -16 -1 -24 -9 -8
-8 -17 -12 -21 -9 -3 4 -6 1 -6 -6 0 -7 -4 -10 -8 -7 -5 3 -23 -4 -40 -15 -18
-10 -39 -19 -47 -19 -8 0 -15 -4 -15 -8 0 -5 -6 -9 -14 -9 -20 0 -76 -24 -76
-33 0 -3 -7 -7 -15 -8 -8 -1 -22 -3 -30 -4 -8 -1 -15 -4 -15 -8 0 -3 -8 -6
-18 -7 -10 -1 -43 -13 -73 -27 l-56 -25 -2 -97 c-1 -79 2 -100 15 -115 10 -11
23 -19 31 -19 7 0 14 -3 14 -7 6 -35 5 -62 -3 -83 -7 -20 -11 -22 -18 -10 -11
17 -13 -3 -11 -125 5 -230 9 -264 32 -250 5 4 12 -1 15 -9 3 -9 11 -13 17 -9
6 4 7 1 1 -8 -11 -18 -13 -79 -2 -85 4 -3 4 -13 0 -22 -10 -20 -10 -33 0 -47
4 -6 3 -17 -2 -25 -5 -8 -5 -22 1 -32 7 -12 6 -18 -1 -18 -6 0 -8 -5 -3 -12 9
-15 11 -37 16 -139 3 -42 8 -83 13 -90 5 -8 7 -22 6 -31 -2 -10 2 -18 9 -18 9
0 9 -3 0 -14 -10 -11 -8 -15 6 -19 26 -7 116 -3 131 6 7 5 12 3 12 -3 0 -6 5
-8 12 -3 7 4 42 8 78 10 36 1 97 5 135 9 39 3 87 6 107 7 21 1 38 6 38 10 0 5
4 6 9 3 5 -4 21 -2 35 4 19 7 26 6 26 -2 0 -9 3 -9 12 0 7 7 17 8 30 1 10 -5
18 -6 18 -1 0 4 21 8 48 9 113 3 172 7 172 13 0 4 7 7 15 7 8 0 15 -4 15 -9 0
-5 10 -4 21 3 16 8 20 8 14 -1 -5 -9 -2 -10 11 -3 11 6 47 9 82 9 34 -1 62 3
62 8 0 5 6 3 14 -3 10 -8 16 -9 21 -1 3 6 10 8 14 5 5 -2 22 0 40 5 17 5 31 5
31 0 0 -5 26 -6 58 -3 31 3 87 6 124 7 38 0 68 4 68 8 0 10 64 -2 68 -13 2 -5
7 -7 10 -5 7 4 142 16 212 20 19 1 41 5 48 9 7 5 12 3 12 -3 0 -7 5 -8 13 -3
6 4 32 9 57 10 25 1 47 2 50 3 3 1 16 3 30 3 24 2 25 4 25 80 0 42 3 77 7 77
4 0 3 13 -2 30 -13 47 5 58 94 56 42 -1 76 1 76 4 0 3 17 5 38 5 37 -1 62 13
62 34 0 6 7 11 15 11 8 0 15 6 16 13 0 6 2 102 3 212 1 110 5 205 9 212 4 6 3
14 -2 17 -5 4 -8 17 -7 30 3 27 32 62 38 45 6 -17 39 2 35 20 -2 9 -9 15 -15
13 -7 -1 -12 2 -12 7 0 5 -9 11 -20 14 -33 8 -25 33 10 31 17 -1 39 0 50 3 27
7 11 35 -37 64 -21 13 -39 27 -41 31 -2 4 -8 8 -13 8 -5 0 -51 28 -102 62 -73
49 -99 62 -127 61 -53 -3 -74 -7 -82 -18 -5 -6 -8 -5 -8 3 0 7 -4 11 -9 8 -5
-3 -14 1 -21 9 -7 8 -16 12 -21 9 -5 -3 -9 0 -9 5 0 6 -7 11 -15 11 -9 0 -18
7 -21 15 -4 8 -13 15 -20 15 -8 0 -17 7 -20 15 -4 8 -10 12 -15 9 -5 -3 -9 -1
-9 4 0 18 -52 31 -134 36 -23 1 -47 5 -54 10 -6 4 -12 3 -12 -3 0 -9 -36 -7
-66 3 -6 2 -17 0 -24 -4 -8 -5 -19 -6 -25 -2 -5 4 -46 8 -90 8 -200 3 -313 9
-309 16 3 4 -2 8 -10 8 -9 0 -16 4 -16 8 0 5 -19 17 -41 28 -23 10 -47 23 -53
29 -12 11 -92 56 -146 83 -19 9 -40 22 -47 27 -7 6 -19 15 -27 22 -7 6 -17 9
-20 6 -3 -4 -6 -1 -6 5 0 13 -13 16 -23 6z"/>
</g>
</svg>
